<svg xmlns="http://www.w3.org/2000/svg" version="1.1" xmlns:xlink="http://www.w3.org/1999/xlink" xmlns:svgjs="http://svgjs.com/svgjs" width="100%" height="100%" viewBox="0 0 1000 600"><rect width="1000" height="600" x="0" y="0" fill="#4444bb"/><g><circle r="166.66666666666666" cx="293.21276346842444" cy="315.43496968684406" fill="#fbf8be" transform="matrix(0.9877823827307859,0,0,0.9877823827307859,0,-11.58112656186691)"/><path d="M206.89311248959928 340.4954342991536L204.97252702466974 376.3997125740862Q204.97252702466974 387.73650177679514 182.88579417798016 387.73650177679514L182.88579417798016 387.73650177679514Q178.08433051565635 387.73650177679514 177.20406217756366 382.82833892197533Q176.35046863759496 377.9468508652794 176.35046863759496 369.11749268622833L176.35046863759496 369.11749268622833Q176.35046863759496 350.47180879753756 183.84608691044494 323.0234415279197L183.84608691044494 323.0234415279197Q196.32989243248687 277.67628471708355 210.54755983259017 269.6204956836291L210.54755983259017 269.6204956836291Q212.46814529751973 268.4734793642962 214.76217793618554 268.4734793642962Q217.05621057485138 268.4734793642962 217.05621057485138 275.9690976371462Q217.05621057485138 283.4380411118721 216.3093162273788 289.19979750666073L216.3093162273788 289.19979750666073Q214.76217793618554 300.7233102962379 210.8143078138304 318.96887221306844Q206.89311248959928 337.21443412989896 206.89311248959928 340.4954342991536L206.89311248959928 340.4954342991536ZM218.01650330731613 324.730628607857L218.01650330731613 324.730628607857Q218.01650330731613 322.2498723823231 220.81735711033835 321.47630323672644Q223.59153611523655 320.7027340911298 227.83282901695594 320.03586413802935Q232.0474471205513 319.3689941849288 237.0356343697433 318.0085794806037Q242.02382161893524 316.6748395744026 246.26511452065463 313.0203922314117L246.26511452065463 313.0203922314117Q256.05476543217037 304.564481226097 256.05476543217037 284.79845581619725L256.05476543217037 284.79845581619725Q256.05476543217037 272.12792670728714 247.5188300324836 265.4058775800338Q238.9562198346728 258.6838284527804 222.92466616213605 258.6838284527804Q206.89311248959928 258.6838284527804 192.86216867636412 265.4058775800338L192.86216867636412 265.4058775800338Q187.687257840304 267.8866338055677 183.55266413108072 269.9939428573654Q179.4180704218574 272.12792670728714 175.97702146385868 272.12792670728714Q172.5092977077359 272.12792670728714 172.5092977077359 269.9939428573654L172.5092977077359 269.9939428573654Q172.5092977077359 266.7396174862348 178.85789966125296 259.2439992133849L178.85789966125296 259.2439992133849Q185.179826816646 252.33522649926337 198.91734785051693 246.38674651760664Q212.65486888438787 240.4382665359499 227.83282901695594 240.4382665359499L227.83282901695594 240.4382665359499Q256.42821260590677 240.22486815095775 272.37974188407145 253.88236479045662L272.37974188407145 253.88236479045662Q286.1972873123144 265.7793247537701 286.1972873123144 284.69175662370117Q286.1972873123144 303.6041884936322 272.56646547093953 318.4887258468361Q258.93564362956465 333.37326320003996 238.47607346844043 333.37326320003996Q218.01650330731613 333.37326320003996 218.01650330731613 324.730628607857ZM328.07672036702775 291.8139277228148Q340.933973062806 291.70722853031873 347.2825750163231 296.61539138513865Q353.6311769698401 301.4968794418345 353.6311769698401 310.61966040024976Q353.6311769698401 319.7424413586651 348.13616855629175 326.1710677065542Q342.66783494086735 332.6263688525673 334.79876949428115 335.2938486649694L334.79876949428115 335.2938486649694Q340.3738023022015 341.0556050597581 344.8818431851611 347.0307598395388Q349.38988406812075 352.97923982119556 349.38988406812075 359.51456536158076L349.38988406812075 359.51456536158076Q349.38988406812075 372.371818057359 339.2267859828686 379.38728996397657Q329.03701309949247 386.40276187059413 310.898150375158 386.40276187059413Q292.7326128526996 386.40276187059413 283.7165310867804 379.2005663771084Q274.6737745227373 371.9983708836226 274.6737745227373 362.8755899252074Q274.6737745227373 353.7528089667922 279.2084902038208 346.25719069394216Q283.7165310867804 338.76157242109224 288.8914419228405 338.76157242109224L288.8914419228405 338.76157242109224Q291.959043707103 338.76157242109224 293.31945841142806 340.97558066538596Q294.6531983176292 343.1895889096797 298.3076456606201 353.7528089667922L298.3076456606201 353.7528089667922Q299.6413855668211 357.5939798966512 302.73566214920754 361.03502885464997L302.73566214920754 361.03502885464997Q309.8311584501972 368.90409430123617 325.19584216963347 368.90409430123617L325.19584216963347 368.90409430123617Q322.9018095309676 361.6218744133784 317.8069230892796 356.3402643848222Q312.7120366475915 351.058654356266 307.7238493983996 346.07046710707397Q302.73566214920754 341.0556050597581 298.89449121934854 335.4005478574655Q295.0533202894894 329.745490655173 295.0533202894894 322.0631487954549L295.0533202894894 322.0631487954549Q295.0533202894894 308.21892856908784 305.40314196160966 299.576293976905L305.40314196160966 299.576293976905Q315.2194676712495 291.89395211718687 328.07672036702775 291.8139277228148ZM327.3031512214311 327.4247832183832L327.3031512214311 327.4247832183832Q334.98549308114923 319.1822705980606 334.98549308114923 314.1674085507446L334.98549308114923 314.1674085507446Q334.98549308114923 311.87337591207876 333.35833039558395 310.05948963964534Q331.73116771001867 308.21892856908784 328.6635659257562 308.21892856908784Q325.56928934336975 308.21892856908784 322.79511033847155 308.9924977146845Q320.02093133357334 309.76606686028106 318.287069455512 310.1395140340174L318.287069455512 310.1395140340174Q318.287069455512 317.44840871999924 327.3031512214311 327.4247832183832ZM376.6782025489945 377.54672889341913Q380.5193734788535 367.75707798190325 388.2017153385716 361.32845163401413Q395.8840571982897 354.899825286125 404.90013896420896 354.899825286125Q413.9162207301281 354.899825286125 413.9162207301281 364.87619978450897Q413.9162207301281 374.879249081017 407.48759438223897 382.7483145276032Q401.05896803434985 390.61737997418953 394.52364249396464 390.43065638732133L394.52364249396464 390.43065638732133Q383.0001297043875 390.43065638732133 376.6782025489945 377.54672889341913L376.6782025489945 377.54672889341913Z " fill="#4444bb" transform="matrix(0.9877823827307859,0,0,0.9877823827307859,0,-11.58112656186691)"/><path d="M583.9167155847376 270.88627114929943L583.9167155847376 270.88627114929943Q586.7427707410137 269.30893803881975 588.0134001911224 269.30893803881975Q589.2840296412311 269.30893803881975 589.2840296412311 270.4043082544307L589.2840296412311 270.4043082544307Q587.7066965307514 279.079640362069 587.7066965307514 280.50362164236316L587.7066965307514 280.50362164236316Q587.7066965307514 287.44826880933624 593.3807142476157 318.8196717844324Q599.0547319644802 350.21298216384065 599.0547319644802 356.45659239282276Q599.0547319644802 362.6782952174927 597.7841025143715 367.6512759963662Q596.5353804685752 372.62425677523964 593.9283993554212 377.9696634274208Q591.3214182422672 383.33697748391427 585.9541041857739 386.88597698249356Q580.6086975335927 390.43497648107285 573.0287356415653 390.43497648107285Q565.448773749538 390.43497648107285 554.3417197632433 379.9413298155204Q543.2127583726366 369.4695905542803 543.2127583726366 363.3136099425471L543.2127583726366 363.3136099425471Q543.2127583726366 361.25431393719856 544.3957582054965 360.0713141043388Q545.5787580383562 358.88831427147903 549.0620353239989 355.4926666030852Q552.5234052053294 352.1189263390036 554.4950715934289 349.8186488862207Q556.4667379815286 347.5402788377501 557.5621081971394 347.5402788377501L557.5621081971394 347.5402788377501Q558.1974229221938 347.5402788377501 562.6227185932618 354.2439445572888Q567.0261068600176 360.94761027682745 573.4230689191852 367.6512759963662Q579.8200309783529 374.3549417159049 585.4940486952173 374.3549417159049Q591.1680664120818 374.3549417159049 591.1680664120818 359.83033265690443L591.1680664120818 359.83033265690443Q591.1680664120818 348.4822972231755 585.7350301426517 320.1779308517899Q580.2800864689094 291.85165707609207 580.2800864689094 283.811639693508Q580.2800864689094 275.77162231092404 583.9167155847376 270.88627114929943ZM550.4641091999808 266.1542718178604L550.4641091999808 266.1542718178604Q558.526033986877 261.09366142173803 584.2234192451086 250.7752739906834Q609.9427119076526 240.4349791553165 617.3474145651822 240.4349791553165L617.3474145651822 240.4349791553165Q620.042025295585 240.4349791553165 620.042025295585 243.19531209865596Q620.042025295585 245.95564504199544 618.2894329506076 250.2933110958146Q616.5587480099424 254.63097714963374 615.3100259641459 256.69027315498226L615.3100259641459 256.69027315498226Q613.7326928536662 258.7276617560185 607.0947493470642 260.94030959155253L607.0947493470642 260.94030959155253Q593.3807142476157 265.1903460281228 575.1537538598504 272.4636042597792Q556.9487008763973 279.7149550871233 552.4357755880804 282.7162694778972Q547.9447577040758 285.6956764643588 546.6084060410304 285.6956764643588Q545.2720543779852 285.6956764643588 545.2720543779852 282.7819916908338Q545.2720543779852 279.8683069173088 547.2437207660847 273.4056226452045Q549.2153871541844 266.9429383731002 550.4641091999808 266.1542718178604ZM647.3167436642964 361.4076657673841L647.3167436642964 361.4076657673841L646.6814289392421 365.83296143845206Q646.6814289392421 368.68092399904043 649.1350582222104 371.747960602751Q651.5886875051789 374.81499720646144 654.8967055563237 374.81499720646144L654.8967055563237 374.81499720646144Q657.4160570522288 374.81499720646144 658.9933901627086 373.7196269908506L658.9933901627086 373.7196269908506Q662.454760044039 371.3536273251311 663.3310562165277 370.4773311526423Q664.2073523890164 369.62294238446583 666.179018777116 369.62294238446583Q668.1506851652157 369.62294238446583 668.1506851652157 371.04692366475996L668.1506851652157 371.04692366475996Q668.1506851652157 372.62425677523964 660.7240751033737 380.97097781819474L660.7240751033737 380.97097781819474Q658.3580754376542 383.66558854859755 653.7794279364007 386.6449955350592Q649.2226878394594 389.646309925833 645.6736883408801 389.646309925833Q642.1246888423007 389.646309925833 640.3063742843866 388.46331009297324Q638.4880597264726 387.2803102601135 637.6993931712327 384.7609587642084L637.6993931712327 384.7609587642084Q636.7573747858073 381.299588882878 636.7573747858073 376.2389784867557L636.7573747858073 376.2389784867557Q636.7573747858073 375.6036637617013 635.9687082305675 375.6036637617013Q635.1800416753276 375.6036637617013 632.3320791147393 378.75832998266065L632.3320791147393 378.75832998266065Q623.5033951769154 387.91562498516777 618.0703589074855 387.91562498516777Q612.6154152337432 387.91562498516777 609.7017304602181 385.0676624245795Q606.7880456866932 382.2416072683034 606.7880456866932 377.81631159723537L606.7880456866932 377.81631159723537Q606.7880456866932 370.0829978750224 610.884730293078 363.0726284951126Q614.9814148994627 356.06225911520295 620.6554326163272 351.79031527432045L620.6554326163272 351.79031527432045Q633.2740975001647 342.4796684416278 640.2187446671378 342.4796684416278L640.2187446671378 342.4796684416278Q650.6247617154413 342.80827950631107 650.6247617154413 349.90627850346965L650.6247617154413 349.90627850346965Q650.6247617154413 352.42562999937473 648.4340212842195 354.87925928234307Q646.2213734486854 357.31098116099935 644.3154292735225 357.31098116099935Q642.4313925026718 357.31098116099935 639.1233744515268 354.0029631098544Q635.8153564003819 350.6949450587095 631.8720236241827 350.6949450587095Q627.9286908479835 350.6949450587095 625.3874319477662 353.9153334926055Q622.8680804518611 357.1576293308138 622.8680804518611 362.19633232262396L622.8680804518611 362.19633232262396Q622.8680804518611 370.4116089397057 631.5434125594994 370.4116089397057L631.5434125594994 370.4116089397057Q635.0266898451421 370.4116089397057 637.3050598936128 368.68092399904043Q639.5834299420834 366.928331654063 640.547355731821 364.8909430530268L640.547355731821 364.8909430530268Q643.2200590579116 359.5236289965333 645.4327068934456 359.5236289965333L645.4327068934456 359.5236289965333Q647.3167436642964 359.5236289965333 647.3167436642964 361.4076657673841ZM664.2073523890164 357.94629588605363L664.2073523890164 357.94629588605363Q666.3980928202382 355.09833332546526 668.4573888255867 350.54159322852394L668.4573888255867 350.54159322852394Q670.1880737662519 347.5402788377501 672.9484067095914 347.5402788377501Q675.7087396529308 347.5402788377501 677.2860727634105 350.6949450587095Q678.8634058738902 353.84961127966886 679.5863502161934 357.5519626084337Q680.2873871541843 361.25431393719856 682.5000349897184 364.40898015815793Q684.7126828252524 367.5636463791173 688.8750896445738 367.5636463791173Q693.0594038682075 367.5636463791173 693.0594038682075 363.6203136029181L693.0594038682075 363.6203136029181Q690.2333487119313 361.7362768320673 686.9034232564742 358.0996477162392Q683.5954052053293 354.48492600472315 683.5954052053293 351.3302597837638Q683.5954052053293 348.1755935628044 687.4730157685918 342.5672980588766Q691.3287189275422 336.9590025549489 693.212755698393 336.9590025549489L693.212755698393 336.9590025549489Q694.4833851485016 336.9590025549489 695.2720517037415 338.77731711286293Q696.0607182589813 340.595631670777 696.0607182589813 341.69100188638794L696.0607182589813 341.69100188638794Q696.0607182589813 344.8456681073473 699.850699204995 347.8469824981211Q703.6406801510087 350.84829688889505 709.4680496980586 350.84829688889505L709.4680496980586 350.84829688889505Q710.410068083484 349.4243156086008 711.5273457034071 349.4243156086008L711.5273457034071 349.4243156086008Q713.1046788138868 349.7529266732841 713.1046788138868 352.3380003821258Q713.1046788138868 354.9449814952798 708.6793831428188 358.64733282404455Q704.2540874717508 362.3715915571217 698.7334215850719 364.10227649778693L698.7334215850719 364.10227649778693Q697.7914031996465 364.7375912228412 697.638051369461 365.2852763306467Q697.4846995392754 365.83296143845206 696.3674219193524 370.0829978750224Q695.2720517037415 374.3549417159049 694.4833851485016 376.17325627381894Q693.6947185932618 377.9696634274208 691.9640336525965 381.1243296483802L691.9640336525965 381.1243296483802Q688.8093674316372 386.9736065997425 681.558016604293 386.9736065997425L681.558016604293 386.9736065997425Q677.132720933225 386.9736065997425 674.2847583726366 384.4542551038374Q671.4587032163605 381.91299620362014 670.1880737662519 377.81631159723537L670.1880737662519 377.81631159723537Q668.4573888255867 371.66033098550207 668.4573888255867 365.6796096082666L668.4573888255867 365.6796096082666Q668.4573888255867 363.3136099425471 667.0334075452926 363.16025811236153L667.0334075452926 363.16025811236153Q663.4186858337765 362.83164704767825 663.4186858337765 360.31229555177316L663.4186858337765 360.31229555177316Q663.4186858337765 359.2169253361623 664.2073523890164 357.94629588605363ZM710.4976977007329 332.555614288193Q708.0440684177645 329.8610035577902 708.0440684177645 325.91767078159097Q708.0440684177645 321.97433800539176 710.4976977007329 319.30163467930123Q712.9294195793891 316.6289313532106 716.5660486952173 316.6289313532106Q720.2026778110454 316.6289313532106 722.6343996897017 319.30163467930123Q725.0880289726701 321.97433800539176 725.0880289726701 325.91767078159097Q725.0880289726701 329.8610035577902 722.6343996897017 332.555614288193Q720.2026778110454 335.22831761428364 716.5660486952173 335.22831761428364Q712.9294195793891 335.22831761428364 710.4976977007329 332.555614288193ZM743.2273597431865 366.928331654063L743.2273597431865 366.928331654063Q744.8046928536662 365.6796096082666 746.0534148994626 365.6796096082666L746.0534148994626 365.6796096082666Q748.2660627349967 365.6796096082666 748.2660627349967 368.5056647645427L748.2660627349967 368.5056647645427Q748.2660627349967 372.4489975407419 738.4953604117475 380.2699408802037Q728.702750684186 388.0689768153533 721.6047516870274 388.0689768153533Q714.5067526898688 388.0689768153533 710.5634199136696 383.03027382354315Q706.6200871374704 377.9696634274208 706.6200871374704 370.01727566208575Q706.6200871374704 362.0429804924384 709.3146978678732 354.6382778349087Q711.9874011939637 347.21166777306684 714.6820119243665 347.21166777306684L714.6820119243665 347.21166777306684Q715.9307339701629 347.38692700756457 715.9307339701629 351.0892783363294Q715.9307339701629 354.79162966509426 717.0480115900862 359.2169253361623Q718.143381805697 363.6203136029181 721.8457331344619 367.6512759963662Q725.5480844632266 371.66033098550207 731.4630836275255 371.66033098550207Q737.3780827918243 371.66033098550207 743.2273597431865 366.928331654063ZM756.3060801175807 363.46696177273253Q759.0006908479835 362.52494338730725 761.7610237913229 357.39861077824816Q764.5213567346624 352.2722781691892 764.5213567346624 348.96426011804425Q764.5213567346624 345.63433466258715 762.0020052387573 345.4809828324016L762.0020052387573 345.4809828324016Q758.2120242927436 345.4809828324016 756.6346911822639 348.87663050079544Q755.0573580717842 352.2722781691892 755.0573580717842 356.281333158325Q755.0573580717842 360.31229555177316 756.3060801175807 363.46696177273253L756.3060801175807 363.46696177273253ZM769.8886707911558 373.7196269908506L769.8886707911558 373.7196269908506Q774.2920590579116 373.7196269908506 777.2057438314366 371.747960602751Q780.1413360092738 369.7762942146514 782.7264097181155 366.6216279936919Q785.3333908312694 363.46696177273253 786.8450017288125 363.46696177273253Q788.3347052220432 363.46696177273253 788.3347052220432 364.8909430530268L788.3347052220432 364.8909430530268Q788.3347052220432 365.83296143845206 787.6993904969889 367.10359088856075L787.6993904969889 367.10359088856075Q782.5073356749933 375.45031193151584 774.7740219527803 381.8472739906834Q767.0407082305674 388.2223286455389 758.3653761229291 388.2223286455389Q749.6900440152908 388.2223286455389 745.8343408563405 384.0599218262175Q741.956730293078 379.8756076025838 741.956730293078 372.93096043561076L741.956730293078 372.93096043561076Q741.956730293078 360.94761027682745 750.9606734653995 348.3946676059266Q759.9427092334088 335.8636323393379 769.5600597264724 335.8636323393379L769.5600597264724 335.8636323393379Q774.6206701225949 335.8636323393379 774.6206701225949 339.9603169457227L774.6206701225949 339.9603169457227Q774.6206701225949 345.4809828324016 771.1373928369521 351.3959819967005Q767.6760229556218 357.31098116099935 758.3653761229291 367.41029454893174L758.3653761229291 367.41029454893174Q762.6154125594994 373.7196269908506 769.8886707911558 373.7196269908506ZM788.9700199470976 360.94761027682745L788.9700199470976 360.94761027682745L784.698076106215 361.25431393719856Q781.872020949939 361.25431393719856 781.872020949939 359.83033265690443L781.872020949939 359.83033265690443Q781.872020949939 357.63959222568263 787.4584090495546 351.3959819967005Q793.0667045534824 345.1742791720306 797.4920002245503 345.1742791720306L797.4920002245503 345.1742791720306Q799.3760369954011 345.1742791720306 800.8657404886319 346.26964938764144Q802.377351386175 347.38692700756457 802.5307032163605 348.96426011804425L802.5307032163605 348.96426011804425L803.3193697716003 356.06225911520295Q803.8013326664691 356.67566643594495 804.2613881570257 356.67566643594495Q804.7433510518945 356.67566643594495 806.7807396529308 354.15631494004L806.7807396529308 354.15631494004Q813.4186831595329 346.423001217827 818.6107379815285 346.423001217827L818.6107379815285 346.423001217827Q820.670033986877 346.423001217827 821.9406634369856 347.0583159428813Q823.189385482782 347.6936306679357 824.8543482105106 349.51194522584973Q826.4974035339269 351.3302597837638 826.6726627684247 351.48361161394934L826.6726627684247 351.48361161394934Q827.7680329840356 351.0016487190805 828.8634031996464 351.0016487190805L828.8634031996464 351.0016487190805Q830.615995544624 351.0016487190805 830.615995544624 353.12666693736566Q830.615995544624 355.2735925599631 824.4600149328907 361.0133324897642Q818.3040343211575 366.77497982387746 815.3027199303835 366.77497982387746Q812.3014055396097 366.77497982387746 810.2640169385734 364.10227649778693Q808.204720933225 361.4076657673841 807.2627025477996 361.4076657673841L807.2627025477996 361.4076657673841Q803.6260734319715 361.4076657673841 803.6260734319715 365.1976467133978L803.6260734319715 365.1976467133978Q803.6260734319715 368.04560927398614 806.2330545451254 374.81499720646144Q808.8400356582792 381.606292543249 808.8400356582792 382.8769219933577L808.8400356582792 382.8769219933577Q808.8400356582792 386.0315882143171 805.597739820071 387.82799536791896Q802.377351386175 389.646309925833 798.4997408229124 389.646309925833Q794.6440376639621 389.646309925833 792.2780379982426 388.3975878800366Q789.912038332523 387.1269584299279 789.912038332523 384.91431059439395L789.912038332523 384.91431059439395L794.337334003591 365.83296143845206Q794.337334003591 360.94761027682745 788.9700199470976 360.94761027682745ZM864.9887129104939 361.4076657673841L864.9887129104939 361.4076657673841L864.3533981854396 365.83296143845206Q864.3533981854396 368.68092399904043 866.807027468408 371.747960602751Q869.2606567513765 374.81499720646144 872.5686748025213 374.81499720646144L872.5686748025213 374.81499720646144Q875.0880262984264 374.81499720646144 876.665359408906 373.7196269908506L876.665359408906 373.7196269908506Q880.1267292902365 371.3536273251311 881.0030254627252 370.4773311526423Q881.879321635214 369.62294238446583 883.8509880233136 369.62294238446583Q885.8226544114132 369.62294238446583 885.8226544114132 371.04692366475996L885.8226544114132 371.04692366475996Q885.8226544114132 372.62425677523964 878.3960443495712 380.97097781819474L878.3960443495712 380.97097781819474Q876.0300446838518 383.66558854859755 871.4513971825982 386.6449955350592Q866.8946570856568 389.646309925833 863.3456575870775 389.646309925833Q859.7966580884982 389.646309925833 857.9783435305842 388.46331009297324Q856.16002897267 387.2803102601135 855.3713624174302 384.7609587642084L855.3713624174302 384.7609587642084Q854.4293440320048 381.299588882878 854.4293440320048 376.2389784867557L854.4293440320048 376.2389784867557Q854.4293440320048 375.6036637617013 853.640677476765 375.6036637617013Q852.8520109215251 375.6036637617013 850.0040483609368 378.75832998266065L850.0040483609368 378.75832998266065Q841.175364423113 387.91562498516777 835.7423281536829 387.91562498516777Q830.2873844799407 387.91562498516777 827.3736997064157 385.0676624245795Q824.4600149328907 382.2416072683034 824.4600149328907 377.81631159723537L824.4600149328907 377.81631159723537Q824.4600149328907 370.0829978750224 828.5566995392754 363.0726284951126Q832.6533841456602 356.06225911520295 838.3274018625247 351.79031527432045L838.3274018625247 351.79031527432045Q850.9460667463622 342.4796684416278 857.8907139133353 342.4796684416278L857.8907139133353 342.4796684416278Q868.2967309616388 342.80827950631107 868.2967309616388 349.90627850346965L868.2967309616388 349.90627850346965Q868.2967309616388 352.42562999937473 866.105990530417 354.87925928234307Q863.8933426948829 357.31098116099935 861.98739851972 357.31098116099935Q860.1033617488692 357.31098116099935 856.7953436977243 354.0029631098544Q853.4873256465794 350.6949450587095 849.5439928703802 350.6949450587095Q845.600660094181 350.6949450587095 843.0594011939637 353.9153334926055Q840.5400496980586 357.1576293308138 840.5400496980586 362.19633232262396L840.5400496980586 362.19633232262396Q840.5400496980586 370.4116089397057 849.215381805697 370.4116089397057L849.215381805697 370.4116089397057Q852.6986590913396 370.4116089397057 854.9770291398103 368.68092399904043Q857.255399188281 366.928331654063 858.2193249780186 364.8909430530268L858.2193249780186 364.8909430530268Q860.8920283041091 359.5236289965333 863.1046761396432 359.5236289965333L863.1046761396432 359.5236289965333Q864.9887129104939 359.5236289965333 864.9887129104939 361.4076657673841Z " fill="#fbf8be" transform="matrix(0.9877823827307859,0,0,0.9877823827307859,0,-11.58112656186691)"/></g></svg>